#!OML:ASF E:\emotionWalksFemale\Project 1\Capture day 1\Session 1\Female1.ASF
:FULLY-SPECIFIED
:DEGREES
1
root 8.66183 15.3181 21.4669 176.494 0.435413 -178.092
lowerback 8.883 1.68212 2.54025
upperback -3.77352 2.65506 0.38881
thorax -8.90696 1.17396 -1.45198
lowerneck -7.47703 -3.10534 -7.29861
upperneck 14.157 -4.48178 5.70503
head 5.7898 -2.31948 2.65566
rclavicle -1.12127e-014 -2.5842e-015
rhumerus -45.1033 12.4467 -94.099
rradius 34.8492
rwrist 15.2803
rhand 0.0158203 -55.1042
rfingers 7.12502
rthumb 25.6055 -83.4028
lclavicle -1.12127e-014 -2.5842e-015
lhumerus -46.3852 0.455606 87.1436
lradius 38.1812
lwrist -11.6927
lhand -4.91994 -32.6793
lfingers 7.12502
lthumb 20.8703 -3.78186
rfemur -0.602439 9.44222 26.1103
rtibia 22.3628
rfoot -16.6281 -26.4564
rtoes -9.14524
lfemur -6.71669 -13.9646 -21.1616
ltibia 30.1705
lfoot -19.9427 16.5532
ltoes -53.2647
2
root 8.66398 15.3207 21.4666 176.508 0.270389 -178.069
lowerback 8.85083 1.63852 2.57075
upperback -3.77884 2.59966 0.384085
thorax -8.89465 1.14561 -1.46412
lowerneck -7.43684 -3.08662 -7.37877
upperneck 14.1318 -4.4535 5.74943
head 5.77577 -2.30724 2.68576
rclavicle -1.05045e-014 -3.32964e-015
rhumerus -44.9183 12.0971 -93.8087
rradius 34.6525
rwrist 15.9582
rhand -0.217041 -54.9626
rfingers 7.12502
rthumb 25.3825 -83.293
lclavicle -1.05045e-014 -3.32964e-015
lhumerus -46.3283 0.590502 87.0834
lradius 38.2937
lwrist -11.6875
lhand -4.9542 -32.6734
lfingers 7.12502
lthumb 20.8374 -3.77234
rfemur -0.552019 9.39875 26.1493
rtibia 22.3294
rfoot -16.8278 -26.4097
rtoes -8.87417
lfemur -6.76682 -14.0332 -21.1136
ltibia 30.1845
lfoot -20.0543 16.4616
ltoes -53.3948
3
root 8.66265 15.3226 21.4739 176.544 0.781747 -178.091
lowerback 8.96385 1.81354 2.58202
upperback -3.81371 2.84019 0.377749
thorax -8.98837 1.25936 -1.52114
lowerneck -7.36732 -3.08553 -7.43167
upperneck 14.057 -4.44704 5.76849
head 5.74163 -2.30534 2.70201
rclavicle -5.889e-015 2.13694e-015
rhumerus -44.8219 11.8403 -93.5778
rradius 34.5379
rwrist 16.4555
rhand -0.523197 -54.715
rfingers 7.12502
rthumb 25.0891 -83.0868
lclavicle -5.889e-015 2.13694e-015
lhumerus -46.2877 0.638286 87.073
lradius 38.3878
lwrist -11.6101
lhand -5.102 -32.7411
lfingers 7.12502
lthumb 20.6954 -3.82451
rfemur -0.672286 9.55292 26.0737
rtibia 22.3334
rfoot -16.5877 -26.0821
rtoes -9.60158
lfemur -6.7946 -13.7109 -21.129
ltibia 30.2351
lfoot -20.2278 16.5349
ltoes -53.2712
4
root 8.66306 15.3217 21.4748 176.58 0.672516 -178.069
lowerback 8.921 1.77858 2.61753
upperback -3.8215 2.79657 0.36963
thorax -8.97155 1.23647 -1.54106
lowerneck -7.32511 -3.09545 -7.41494
upperneck 14.008 -4.45469 5.72312
head 5.71838 -2.31089 2.68484
rclavicle 1.44616e-014 -9.0447e-015
rhumerus -44.7309 11.5779 -93.3466
rradius 34.4492
rwrist 16.8125
rhand -0.51897 -54.5733
rfingers 7.12502
rthumb 25.0932 -82.9445
lclavicle 1.44616e-014 -9.0447e-015
lhumerus -46.1911 0.567489 87.095
lradius 38.406
lwrist -11.4207
lhand -5.01483 -32.5609
lfingers 7.12502
lthumb 20.7792 -3.65346
rfemur -0.712636 9.49773 26.101
rtibia 22.3405
rfoot -16.522 -26.2301
rtoes -9.72995
lfemur -6.87014 -13.8114 -21.0909
ltibia 30.2743
lfoot -20.2191 16.51
ltoes -53.1455
5
root 8.66378 15.3213 21.477 176.589 0.685617 -178.067
lowerback 8.88266 1.78997 2.59746
upperback -3.79569 2.8075 0.379184
thorax -8.92179 1.24424 -1.51921
lowerneck -7.33298 -3.1088 -7.38726
upperneck 13.978 -4.46005 5.64864
head 5.70872 -2.31543 2.65619
rclavicle -4.5472e-014 -6.4605e-015
rhumerus -44.5736 11.325 -93.0601
rradius 34.3806
rwrist 17.144
rhand -0.136732 -54.6372
rfingers 7.12502
rthumb 25.4594 -82.9567
lclavicle -4.5472e-014 -6.4605e-015
lhumerus -46.0828 0.5842 87.0849
lradius 38.4737
lwrist -11.2883
lhand -4.73869 -32.4015
lfingers 7.12502
lthumb 21.0445 -3.52339
rfemur -0.725226 9.53905 26.1008
rtibia 22.3535
rfoot -16.7488 -26.1418
rtoes -8.77456
lfemur -6.90712 -13.7993 -21.0813
ltibia 30.3222
lfoot -20.1422 16.5928
ltoes -53.1967
6
root 8.66441 15.324 21.4795 176.635 0.681636 -178.073
lowerback 8.83716 1.79361 2.58306
upperback -3.78594 2.80836 0.375756
thorax -8.88489 1.24619 -1.51281
lowerneck -7.3686 -3.12147 -7.39325
upperneck 13.9444 -4.46686 5.63916
head 5.70486 -2.31719 2.65324
rclavicle -2.52643e-014 -4.67144e-015
rhumerus -44.412 11.0963 -92.849
rradius 34.2304
rwrist 17.2276
rhand 0.299937 -54.7375
rfingers 7.12502
rthumb 25.8776 -82.9967
lclavicle -2.52643e-014 -4.67144e-015
lhumerus -46.0354 0.609228 87.0395
lradius 38.605
lwrist -11.1513
lhand -4.83091 -32.5544
lfingers 7.12502
lthumb 20.9559 -3.66642
rfemur -0.769719 9.56014 26.0794
rtibia 22.3394
rfoot -16.8875 -26.0182
rtoes -7.95851
lfemur -6.98533 -13.7644 -21.0704
ltibia 30.3591
lfoot -20.1722 16.5486
ltoes -53.3951
